<svg xmlns="http://www.w3.org/2000/svg" viewBox="0 0 800 400" font-family="system-ui,-apple-system,sans-serif">
  <rect width="800" height="400" fill="#f8f9fa" rx="16"/>
  <text x="40" y="45" font-size="22" font-weight="700" fill="#1a1a2e">AI抠图工具横评对比矩阵</text>
  <text x="40" y="70" font-size="13" fill="#6b7280">AI Background Remover Tool Comparison 2026</text>
  <!-- Header -->
  <rect x="40" y="88" width="720" height="30" fill="#4361ee" rx="4"/>
  <text x="130" y="108" font-size="11" fill="#fff" font-weight="600" text-anchor="middle">工具</text>
  <text x="210" y="108" font-size="10" fill="#fff" text-anchor="middle">免费版</text>
  <text x="290" y="108" font-size="10" fill="#fff" text-anchor="middle">无水印</text>
  <text x="370" y="108" font-size="10" fill="#fff" text-anchor="middle">无需注册</text>
  <text x="450" y="108" font-size="10" fill="#fff" text-anchor="middle">隐私保护</text>
  <text x="530" y="108" font-size="10" fill="#fff" text-anchor="middle">处理速度</text>
  <text x="620" y="108" font-size="10" fill="#fff" text-anchor="middle">边缘精度</text>
  <!-- Row: Zan Pic -->
  <rect x="40" y="120" width="720" height="28" fill="#f0f2ff"/>
  <text x="130" y="139" font-size="11" fill="#4361ee" font-weight="700" text-anchor="middle">Zan Pic ⭐</text>
  <circle cx="210" cy="134" r="6" fill="#06d6a0"/><text x="210" y="138" font-size="10" fill="#06d6a0" text-anchor="middle">✓</text>
  <circle cx="290" cy="134" r="6" fill="#06d6a0"/><text x="290" y="138" font-size="10" fill="#06d6a0" text-anchor="middle">✓</text>
  <circle cx="370" cy="134" r="6" fill="#06d6a0"/><text x="370" y="138" font-size="10" fill="#06d6a0" text-anchor="middle">✓</text>
  <circle cx="450" cy="134" r="6" fill="#06d6a0"/><text x="450" y="138" font-size="10" fill="#06d6a0" text-anchor="middle">✓</text>
  <text x="530" y="139" font-size="10" fill="#4361ee" text-anchor="middle">⚡ 2-5s</text>
  <text x="620" y="139" font-size="10" fill="#4361ee" text-anchor="middle">⭐⭐⭐⭐⭐</text>
  <!-- Row: remove.bg -->
  <rect x="40" y="150" width="720" height="28" fill="#fff"/>
  <text x="130" y="169" font-size="11" fill="#1a1a2e" text-anchor="middle">remove.bg</text>
  <circle cx="210" cy="164" r="6" fill="#f59e0b"/><text x="210" y="168" font-size="10" fill="#f59e0b" text-anchor="middle">◐</text>
  <text x="290" y="169" font-size="10" fill="#ef4444" text-anchor="middle">✗</text>
  <text x="370" y="169" font-size="10" fill="#ef4444" text-anchor="middle">✗</text>
  <text x="450" y="169" font-size="10" fill="#f59e0b" text-anchor="middle">上传服务器</text>
  <text x="530" y="169" font-size="10" fill="#374151" text-anchor="middle">3-8s</text>
  <text x="620" y="169" font-size="10" fill="#374151" text-anchor="middle">⭐⭐⭐⭐</text>
  <!-- Row: Adobe Express -->
  <rect x="40" y="180" width="720" height="28" fill="#f0f2ff"/>
  <text x="130" y="199" font-size="11" fill="#1a1a2e" text-anchor="middle">Adobe Express</text>
  <circle cx="210" cy="194" r="6" fill="#06d6a0"/><text x="210" y="198" font-size="10" fill="#06d6a0" text-anchor="middle">✓</text>
  <circle cx="290" cy="194" r="6" fill="#06d6a0"/><text x="290" y="198" font-size="10" fill="#06d6a0" text-anchor="middle">✓</text>
  <text x="370" y="199" font-size="10" fill="#ef4444" text-anchor="middle">✗</text>
  <text x="450" y="199" font-size="10" fill="#f59e0b" text-anchor="middle">上传服务器</text>
  <text x="530" y="199" font-size="10" fill="#374151" text-anchor="middle">5-10s</text>
  <text x="620" y="199" font-size="10" fill="#374151" text-anchor="middle">⭐⭐⭐</text>
  <!-- Row: Photopea -->
  <rect x="40" y="210" width="720" height="28" fill="#fff"/>
  <text x="130" y="229" font-size="11" fill="#1a1a2e" text-anchor="middle">Photopea</text>
  <circle cx="210" cy="224" r="6" fill="#06d6a0"/><text x="210" y="228" font-size="10" fill="#06d6a0" text-anchor="middle">✓</text>
  <circle cx="290" cy="224" r="6" fill="#06d6a0"/><text x="290" y="228" font-size="10" fill="#06d6a0" text-anchor="middle">✓</text>
  <circle cx="370" cy="224" r="6" fill="#06d6a0"/><text x="370" y="228" font-size="10" fill="#06d6a0" text-anchor="middle">✓</text>
  <circle cx="450" cy="224" r="6" fill="#06d6a0"/><text x="450" y="228" font-size="10" fill="#06d6a0" text-anchor="middle">✓</text>
  <text x="530" y="229" font-size="10" fill="#f59e0b" text-anchor="middle">手动抠图</text>
  <text x="620" y="229" font-size="10" fill="#f59e0b" text-anchor="middle">依赖技术</text>
  <!-- Row: Canva -->
  <rect x="40" y="240" width="720" height="28" fill="#f0f2ff"/>
  <text x="130" y="259" font-size="11" fill="#1a1a2e" text-anchor="middle">Canva</text>
  <circle cx="210" cy="254" r="6" fill="#06d6a0"/><text x="210" y="258" font-size="10" fill="#06d6a0" text-anchor="middle">✓</text>
  <circle cx="290" cy="254" r="6" fill="#06d6a0"/><text x="290" y="258" font-size="10" fill="#06d6a0" text-anchor="middle">✓</text>
  <text x="370" y="259" font-size="10" fill="#ef4444" text-anchor="middle">✗</text>
  <text x="450" y="259" font-size="10" fill="#f59e0b" text-anchor="middle">上传服务器</text>
  <text x="530" y="259" font-size="10" fill="#374151" text-anchor="middle">5-10s</text>
  <text x="620" y="259" font-size="10" fill="#374151" text-anchor="middle">⭐⭐⭐</text>
  <!-- Legend -->
  <text x="40" y="310" font-size="13" font-weight="700" fill="#1a1a2e">评测维度说明</text>
  <rect x="40" y="322" width="10" height="10" fill="#06d6a0" rx="2"/>
  <text x="58" y="332" font-size="11" fill="#374151">✓ 完全支持</text>
  <rect x="160" y="322" width="10" height="10" fill="#f59e0b" rx="2"/>
  <text x="178" y="332" font-size="11" fill="#374151">◐ 部分支持/有局限</text>
  <rect x="300" y="322" width="10" height="10" fill="#ef4444" rx="2"/>
  <text x="318" y="332" font-size="11" fill="#374151">✗ 不支持/付费限制</text>
  <text x="40" y="365" font-size="12" fill="#374151" font-weight="600">💡 结论：Zan Pic 是唯一同时满足"完全免费 + 无需注册 + 本地处理 + AI级别精度"的方案</text>
</svg>